<svg width="67" height="57" viewBox="0 0 67 57" fill="none" xmlns="http://www.w3.org/2000/svg">
<path d="M67.7186 1.13051C86.1481 1.06278 103.367 7.00788 116.033 16.3798C128.809 25.8327 136.908 38.7329 137.032 52.4294C137.156 66.1333 129.794 78.6475 117.71 87.7959C105.627 96.9443 88.848 102.702 70.2367 102.871C51.5456 103.041 34.284 101.343 21.6806 96.1692C15.3849 93.5847 10.2775 90.143 6.72937 85.6578C3.18674 81.1795 1.17512 75.6318 1.11299 68.7854C1.01418 57.8983 4.82035 51.5264 10.6057 47.2311C16.051 43.1883 23.2684 40.9643 30.8234 38.6362C31.3698 38.4678 31.918 38.2989 32.4674 38.1287C40.5702 35.6186 48.9096 32.8373 55.4587 27.3871C61.9594 21.9773 66.6579 13.9741 67.7186 1.13051Z" fill="#14213D" stroke="black"/>
</svg>
