<svg width="42" height="43" viewBox="0 0 42 43" fill="none" xmlns="http://www.w3.org/2000/svg">
<path d="M15.7026 9.42105L16.1398 6.86431L18.0434 8.68707L18.3045 8.93707L18.4463 8.60455L19.4555 6.23737L20.9118 8.44915L21.1079 8.74706L21.3211 8.46104L22.85 6.40907L23.7783 8.89246L23.9011 9.22111L24.1716 8.99769L26.1408 7.37142L26.4881 9.99253L26.5335 10.3348L26.8445 10.1849L29.1501 9.07382L28.8955 11.6895L28.8625 12.0289L29.1961 11.9583L31.7145 11.4252L30.8712 13.8915L30.7615 14.2123L31.1004 14.2223L33.6944 14.2985L32.3092 16.48L32.1271 16.7668L32.4551 16.8554L34.9823 17.5378L33.1326 19.3159L32.8854 19.5536L33.1873 19.7162L35.5086 20.9672L33.2969 22.247L32.9957 22.4213L33.257 22.6511L35.2458 24.4007L32.7928 25.1159L32.4531 25.2149L32.6599 25.502L34.2093 27.653L31.6467 27.7678L31.2878 27.7839L31.4276 28.1148L32.4562 30.5494L29.92 30.0595L29.5635 29.9906L29.6264 30.3483L30.0815 32.935L27.7056 31.8668L27.3731 31.7173L27.3534 32.0813L27.2129 34.6826L25.123 33.0917L24.8341 32.8717L24.7317 33.2201L24.0038 35.6985L22.3122 33.6678L22.0822 33.3918L21.9033 33.7033L20.6259 35.9278L19.4252 33.5644L19.265 33.2489L19.0212 33.5053L17.2605 35.3571L16.6181 32.7873L16.5337 32.4498L16.2407 32.6375L14.089 34.0158L14.0421 31.3792L14.036 31.0364L13.7114 31.1471L11.283 31.9751L11.8357 29.4165L11.9075 29.0844L11.5691 29.1147L8.99522 29.3449L10.1173 27.0049L10.2639 26.6992L9.92852 26.6495L7.35012 26.2676L8.97894 24.2743L9.19473 24.0103L8.87796 23.8839L6.43691 22.9104L8.48173 21.3713L8.75757 21.1637L8.47424 20.9664L6.30441 19.4555L8.65273 18.4516L8.97534 18.3137L8.73965 18.0538L6.95865 16.0899L9.48334 15.6724L9.83525 15.6143L9.66049 15.3033L8.36304 12.9948L10.9294 13.1837L11.2899 13.2103L11.1875 12.8636L10.441 10.336L12.9134 11.1202L13.2606 11.2303L13.2386 10.8668L13.0804 8.25543L15.3283 9.59373L15.6412 9.78004L15.7026 9.42105Z" fill="url(#paint0_linear_69_1782)" stroke="black" stroke-width="0.5"/>
<defs>
<linearGradient id="paint0_linear_69_1782" x1="29" y1="10.5" x2="13" y2="32" gradientUnits="userSpaceOnUse">
<stop offset="0.230299" stop-color="#FFD700"/>
<stop offset="0.5" stop-color="#FFF9DB"/>
<stop offset="0.740085" stop-color="#FFD700"/>
</linearGradient>
</defs>
</svg>
