<svg width="126" height="28" viewBox="0 0 126 28" fill="none" xmlns="http://www.w3.org/2000/svg">
<g filter="url(#filter0_d_937_114)">
<path d="M22 1L23.1226 4.10942H26.7553L23.8164 6.03115L24.9389 9.14058L22 7.21885L19.0611 9.14058L20.1836 6.03115L17.2447 4.10942H20.8774L22 1Z" fill="#5FD229"/>
<path d="M22 1.36811L23.005 4.15187L23.0348 4.23442H23.1226H26.3357L23.7479 5.92653L23.6652 5.98063L23.6988 6.0736L24.6944 8.83132L22.0684 7.11423L22 7.0695L21.9316 7.11423L19.3056 8.83132L20.3012 6.0736L20.3348 5.98063L20.2521 5.92653L17.6643 4.23442H20.8774H20.9652L20.995 4.15187L22 1.36811Z" stroke="black" stroke-width="0.25"/>
</g>
<g filter="url(#filter1_d_937_114)">
<path d="M54 1L55.1226 4.10942H58.7553L55.8164 6.03115L56.9389 9.14058L54 7.21885L51.0611 9.14058L52.1836 6.03115L49.2447 4.10942H52.8774L54 1Z" fill="#FFEA2D"/>
<path d="M54 1.36811L55.005 4.15187L55.0348 4.23442H55.1226H58.3357L55.7479 5.92653L55.6652 5.98063L55.6988 6.0736L56.6944 8.83132L54.0684 7.11423L54 7.0695L53.9316 7.11423L51.3056 8.83132L52.3012 6.0736L52.3348 5.98063L52.2521 5.92653L49.6643 4.23442H52.8774H52.9652L52.995 4.15187L54 1.36811Z" stroke="black" stroke-width="0.25"/>
</g>
<g filter="url(#filter2_d_937_114)">
<path d="M92 1L93.1226 4.10942H96.7553L93.8164 6.03115L94.9389 9.14058L92 7.21885L89.0611 9.14058L90.1836 6.03115L87.2447 4.10942H90.8774L92 1Z" fill="#D90000"/>
<path d="M92 1.36811L93.005 4.15187L93.0348 4.23442H93.1226H96.3357L93.7479 5.92653L93.6652 5.98063L93.6988 6.0736L94.6944 8.83132L92.0684 7.11423L92 7.0695L91.9316 7.11423L89.3056 8.83132L90.3012 6.0736L90.3348 5.98063L90.2521 5.92653L87.6643 4.23442H90.8774H90.9652L90.995 4.15187L92 1.36811Z" stroke="black" stroke-width="0.25"/>
</g>
<g filter="url(#filter3_d_937_114)">
<path d="M64 1L65.1226 4.10942H68.7553L65.8164 6.03115L66.9389 9.14058L64 7.21885L61.0611 9.14058L62.1836 6.03115L59.2447 4.10942H62.8774L64 1Z" fill="#FFEA2D"/>
<path d="M64 1.36811L65.005 4.15187L65.0348 4.23442H65.1226H68.3357L65.7479 5.92653L65.6652 5.98063L65.6988 6.0736L66.6944 8.83132L64.0684 7.11423L64 7.0695L63.9316 7.11423L61.3056 8.83132L62.3012 6.0736L62.3348 5.98063L62.2521 5.92653L59.6643 4.23442H62.8774H62.9652L62.995 4.15187L64 1.36811Z" stroke="black" stroke-width="0.25"/>
</g>
<g filter="url(#filter4_d_937_114)">
<path d="M114 1L115.123 4.10942H118.755L115.816 6.03115L116.939 9.14058L114 7.21885L111.061 9.14058L112.184 6.03115L109.245 4.10942H112.877L114 1Z" fill="#D90000"/>
<path d="M114 1.36811L115.005 4.15187L115.035 4.23442H115.123H118.336L115.748 5.92653L115.665 5.98063L115.699 6.0736L116.694 8.83132L114.068 7.11423L114 7.0695L113.932 7.11423L111.306 8.83132L112.301 6.0736L112.335 5.98063L112.252 5.92653L109.664 4.23442H112.877H112.965L112.995 4.15187L114 1.36811Z" stroke="black" stroke-width="0.25"/>
</g>
<g filter="url(#filter5_d_937_114)">
<path d="M103 1L104.123 4.10942H107.755L104.816 6.03115L105.939 9.14058L103 7.21885L100.061 9.14058L101.184 6.03115L98.2447 4.10942H101.877L103 1Z" fill="#D90000"/>
<path d="M103 1.36811L104.005 4.15187L104.035 4.23442H104.123H107.336L104.748 5.92653L104.665 5.98063L104.699 6.0736L105.694 8.83132L103.068 7.11423L103 7.0695L102.932 7.11423L100.306 8.83132L101.301 6.0736L101.335 5.98063L101.252 5.92653L98.6643 4.23442H101.877H101.965L101.995 4.15187L103 1.36811Z" stroke="black" stroke-width="0.25"/>
</g>
<path d="M14.4277 15.0938C14.4147 15.0495 14.4043 15.0104 14.3965 14.9766C14.3913 14.9401 14.3913 14.901 14.3965 14.8594C14.3991 14.8464 14.4017 14.832 14.4043 14.8164C14.4095 14.8008 14.416 14.7891 14.4238 14.7812C14.4342 14.7708 14.4473 14.7643 14.4629 14.7617C14.4785 14.7565 14.4993 14.7591 14.5254 14.7695C14.541 14.7773 14.5566 14.7917 14.5723 14.8125C14.5879 14.8307 14.6009 14.8529 14.6113 14.8789C14.6243 14.9049 14.6348 14.9297 14.6426 14.9531C14.6504 14.9766 14.6556 14.9961 14.6582 15.0117C14.7285 14.9701 14.8066 14.9284 14.8926 14.8867C14.9785 14.8424 15.0671 14.806 15.1582 14.7773C15.252 14.7461 15.3457 14.724 15.4395 14.7109C15.5332 14.6953 15.623 14.6927 15.709 14.7031C15.7376 14.7057 15.7702 14.7135 15.8066 14.7266C15.8457 14.737 15.8809 14.7526 15.9121 14.7734C15.946 14.7917 15.9733 14.8151 15.9941 14.8438C16.0176 14.8698 16.0267 14.901 16.0215 14.9375C16.0215 15.0078 16.0059 15.0807 15.9746 15.1562C15.946 15.2318 15.9082 15.3073 15.8613 15.3828C15.8145 15.4583 15.7611 15.5326 15.7012 15.6055C15.6439 15.6784 15.5866 15.7474 15.5293 15.8125C15.4746 15.875 15.4225 15.9323 15.373 15.9844C15.3236 16.0365 15.2858 16.0794 15.2598 16.1133C15.3483 16.0794 15.4525 16.0508 15.5723 16.0273C15.6921 16.0013 15.8092 15.9922 15.9238 16C16.041 16.0078 16.1452 16.0365 16.2363 16.0859C16.3301 16.1354 16.3926 16.2161 16.4238 16.3281C16.4316 16.3958 16.4186 16.4727 16.3848 16.5586C16.3509 16.6419 16.3027 16.7292 16.2402 16.8203C16.1777 16.9115 16.1035 17.0039 16.0176 17.0977C15.9342 17.1888 15.8457 17.2773 15.752 17.3633C15.6608 17.4492 15.5684 17.5286 15.4746 17.6016C15.3809 17.6745 15.2936 17.7383 15.2129 17.793C15.1348 17.8451 15.0658 17.8854 15.0059 17.9141C14.946 17.9401 14.903 17.9505 14.877 17.9453L14.7832 17.7891C14.7962 17.7917 14.8379 17.7708 14.9082 17.7266C14.9785 17.6797 15.0618 17.6198 15.1582 17.5469C15.2572 17.4714 15.3626 17.3867 15.4746 17.293C15.5866 17.1966 15.6908 17.1003 15.7871 17.0039C15.8861 16.9076 15.9694 16.8151 16.0371 16.7266C16.1048 16.6354 16.1439 16.556 16.1543 16.4883C16.1673 16.3971 16.1426 16.332 16.0801 16.293C16.0202 16.2513 15.9382 16.2305 15.834 16.2305C15.7298 16.2305 15.6139 16.2487 15.4863 16.2852C15.3587 16.319 15.2376 16.3646 15.123 16.4219C15.0085 16.4766 14.9082 16.5404 14.8223 16.6133C14.7363 16.6862 14.6829 16.7617 14.6621 16.8398C14.6517 16.9206 14.6452 17.0039 14.6426 17.0898C14.64 17.1758 14.6374 17.263 14.6348 17.3516C14.6348 17.4375 14.6335 17.5234 14.6309 17.6094C14.6309 17.6953 14.6257 17.7773 14.6152 17.8555C14.6074 17.9128 14.5957 17.9596 14.5801 17.9961C14.5671 18.0326 14.5293 18.0456 14.4668 18.0352C14.4616 18.0352 14.4525 18.0339 14.4395 18.0312C14.4264 18.0286 14.4199 18.026 14.4199 18.0234L14.4277 15.0938ZM14.666 15.3984C14.6582 15.4505 14.6517 15.5169 14.6465 15.5977C14.6439 15.6784 14.6426 15.7617 14.6426 15.8477C14.6426 15.9336 14.6452 16.0169 14.6504 16.0977C14.6582 16.1784 14.6686 16.2461 14.6816 16.3008C14.7285 16.2617 14.7923 16.207 14.873 16.1367C14.9564 16.0664 15.0436 15.9883 15.1348 15.9023C15.2285 15.8138 15.3197 15.7214 15.4082 15.625C15.4967 15.5286 15.5697 15.4362 15.627 15.3477C15.6868 15.2565 15.7246 15.1745 15.7402 15.1016C15.7559 15.026 15.7376 14.9661 15.6855 14.9219C15.6387 14.9167 15.5814 14.9167 15.5137 14.9219C15.4486 14.9245 15.3796 14.9336 15.3066 14.9492C15.2337 14.9622 15.1608 14.9818 15.0879 15.0078C15.015 15.0339 14.9486 15.0664 14.8887 15.1055C14.8288 15.1419 14.778 15.1849 14.7363 15.2344C14.6973 15.2839 14.6738 15.3385 14.666 15.3984ZM16.6855 17.9141C16.6855 17.6641 16.6895 17.4089 16.6973 17.1484C16.7077 16.888 16.7116 16.6263 16.709 16.3633C16.709 16.0977 16.6986 15.8346 16.6777 15.5742C16.6569 15.3138 16.6178 15.0586 16.5605 14.8086C16.5605 14.7956 16.5658 14.7799 16.5762 14.7617C16.5866 14.7409 16.5996 14.7227 16.6152 14.707C16.6309 14.6914 16.6478 14.6797 16.666 14.6719C16.6868 14.6615 16.7077 14.6602 16.7285 14.668C16.7624 14.681 16.7897 14.707 16.8105 14.7461C16.834 14.7826 16.8509 14.8229 16.8613 14.8672C16.8743 14.9115 16.8822 14.9544 16.8848 14.9961C16.89 15.0352 16.8926 15.0638 16.8926 15.082L18.3965 14.707C18.4199 14.7122 18.4382 14.7266 18.4512 14.75C18.4668 14.7708 18.4733 14.7956 18.4707 14.8242C18.4707 14.8503 18.4616 14.8763 18.4434 14.9023C18.4277 14.9284 18.403 14.9466 18.3691 14.957L16.8887 15.3594C16.8887 15.5286 16.8926 15.6966 16.9004 15.8633C16.9108 16.0299 16.9225 16.1992 16.9355 16.3711L18.0215 15.9922C18.0215 15.9922 18.0293 15.9844 18.0449 15.9688C18.0605 15.9531 18.0788 15.9401 18.0996 15.9297C18.123 15.9193 18.1465 15.9154 18.1699 15.918C18.196 15.9206 18.2207 15.9401 18.2441 15.9766C18.2441 16.0286 18.2129 16.0768 18.1504 16.1211C18.0879 16.1628 18.0098 16.2018 17.916 16.2383C17.8249 16.2747 17.7246 16.3099 17.6152 16.3438C17.5085 16.375 17.4082 16.4076 17.3145 16.4414C17.2233 16.4753 17.1465 16.5104 17.084 16.5469C17.0215 16.5807 16.9902 16.6172 16.9902 16.6562L16.9629 17.6836C17.002 17.707 17.0579 17.7148 17.1309 17.707C17.2064 17.6966 17.2897 17.6784 17.3809 17.6523C17.472 17.6263 17.5684 17.5951 17.6699 17.5586C17.7715 17.5195 17.8691 17.4831 17.9629 17.4492C18.0566 17.4154 18.1426 17.3854 18.2207 17.3594C18.3014 17.3333 18.3665 17.319 18.416 17.3164C18.4395 17.319 18.4603 17.3281 18.4785 17.3438C18.4967 17.3568 18.5098 17.3724 18.5176 17.3906C18.5254 17.4089 18.5254 17.4284 18.5176 17.4492C18.5124 17.4674 18.4954 17.4831 18.4668 17.4961C18.3652 17.5404 18.2428 17.5898 18.0996 17.6445C17.9564 17.6992 17.8079 17.7526 17.6543 17.8047C17.5033 17.8542 17.3561 17.8984 17.2129 17.9375C17.0697 17.974 16.9486 17.9961 16.8496 18.0039C16.8132 17.9987 16.7832 17.9909 16.7598 17.9805C16.7389 17.9674 16.7142 17.9453 16.6855 17.9141ZM20.6113 17.1367C20.5358 17.2279 20.4447 17.3229 20.3379 17.4219C20.2311 17.5208 20.1165 17.6107 19.9941 17.6914C19.8717 17.7721 19.7467 17.8372 19.6191 17.8867C19.4915 17.9362 19.3704 17.9596 19.2559 17.957C19.1413 17.9518 19.0358 17.9154 18.9395 17.8477C18.8457 17.7773 18.7715 17.6615 18.7168 17.5C18.6829 17.3854 18.6699 17.2513 18.6777 17.0977C18.6882 16.944 18.7142 16.7826 18.7559 16.6133C18.8001 16.4414 18.8587 16.2682 18.9316 16.0938C19.0072 15.9167 19.0944 15.7487 19.1934 15.5898C19.2949 15.431 19.4069 15.2852 19.5293 15.1523C19.6543 15.0169 19.7858 14.9076 19.9238 14.8242C20.0645 14.7383 20.2116 14.6823 20.3652 14.6562C20.5189 14.6276 20.6764 14.6406 20.8379 14.6953C20.8587 14.6953 20.8717 14.7005 20.877 14.7109C20.8822 14.7188 20.8835 14.7305 20.8809 14.7461C20.8783 14.7617 20.873 14.7812 20.8652 14.8047C20.86 14.8281 20.8574 14.8555 20.8574 14.8867C20.6673 14.8607 20.4863 14.8789 20.3145 14.9414C20.1426 15.0013 19.9824 15.0924 19.834 15.2148C19.6882 15.3372 19.5566 15.4831 19.4395 15.6523C19.3223 15.8216 19.2233 16.0013 19.1426 16.1914C19.0645 16.3815 19.0072 16.5755 18.9707 16.7734C18.9342 16.9688 18.9225 17.1549 18.9355 17.332C18.946 17.4831 18.9902 17.5859 19.0684 17.6406C19.1465 17.6927 19.2415 17.7109 19.3535 17.6953C19.4681 17.6771 19.5918 17.6315 19.7246 17.5586C19.8574 17.4831 19.985 17.3919 20.1074 17.2852C20.2324 17.1758 20.3431 17.0573 20.4395 16.9297C20.5384 16.8021 20.6087 16.6771 20.6504 16.5547H19.9473C19.9082 16.5 19.9043 16.4583 19.9355 16.4297C19.9668 16.401 20.0202 16.3815 20.0957 16.3711C20.1738 16.3581 20.2663 16.3516 20.373 16.3516C20.4798 16.3516 20.5892 16.3542 20.7012 16.3594C20.735 16.3516 20.7819 16.3359 20.8418 16.3125C20.9017 16.2865 20.959 16.2656 21.0137 16.25C21.0684 16.2344 21.1113 16.2305 21.1426 16.2383C21.1764 16.2461 21.1816 16.2773 21.1582 16.332C21.1556 16.3372 21.1465 16.3464 21.1309 16.3594C21.1152 16.3698 21.097 16.3815 21.0762 16.3945C21.0579 16.4049 21.0397 16.4154 21.0215 16.4258C21.0059 16.4362 20.9954 16.4427 20.9902 16.4453C20.9277 16.5677 20.8835 16.7109 20.8574 16.875C20.8314 17.0391 20.8171 17.2096 20.8145 17.3867C20.8118 17.5638 20.8171 17.7396 20.8301 17.9141C20.8457 18.0885 20.8639 18.2461 20.8848 18.3867L20.7363 18.4375C20.7103 18.3984 20.6882 18.3229 20.6699 18.2109C20.6543 18.099 20.6413 17.9753 20.6309 17.8398C20.6204 17.7044 20.6139 17.5729 20.6113 17.4453C20.6087 17.3151 20.6087 17.2122 20.6113 17.1367ZM21.3496 14.7266C21.36 14.7109 21.3757 14.7005 21.3965 14.6953C21.4199 14.6875 21.4434 14.6849 21.4668 14.6875C21.4902 14.6901 21.5124 14.6966 21.5332 14.707C21.5566 14.7174 21.5723 14.7292 21.5801 14.7422L21.6387 17.9453C21.6387 17.9766 21.6309 17.9987 21.6152 18.0117C21.5996 18.0247 21.5801 18.0312 21.5566 18.0312C21.5358 18.0339 21.5137 18.0312 21.4902 18.0234C21.4668 18.0156 21.4473 18.0039 21.4316 17.9883L21.3496 14.7266ZM21.8965 14.7148C21.9251 14.6732 21.959 14.6615 21.998 14.6797C22.0397 14.6953 22.0775 14.7214 22.1113 14.7578C22.1478 14.7917 22.1764 14.8268 22.1973 14.8633C22.2181 14.8971 22.2233 14.9128 22.2129 14.9102L23.6465 17.3594C23.6543 17.3203 23.6608 17.2578 23.666 17.1719C23.6738 17.0833 23.679 16.9805 23.6816 16.8633C23.6842 16.7435 23.6842 16.6133 23.6816 16.4727C23.6816 16.332 23.679 16.1914 23.6738 16.0508C23.6712 15.9102 23.666 15.7721 23.6582 15.6367C23.6504 15.5013 23.6413 15.3802 23.6309 15.2734C23.6204 15.1641 23.6087 15.0742 23.5957 15.0039C23.5827 14.931 23.5671 14.8867 23.5488 14.8711C23.5488 14.8294 23.5566 14.7904 23.5723 14.7539C23.5879 14.7148 23.6191 14.6953 23.666 14.6953C23.7103 14.6953 23.7467 14.7214 23.7754 14.7734C23.804 14.8255 23.8262 14.8841 23.8418 14.9492C23.8574 15.0143 23.8678 15.0781 23.873 15.1406C23.8809 15.2031 23.8848 15.2435 23.8848 15.2617C23.8874 15.3138 23.8887 15.3971 23.8887 15.5117C23.8913 15.6237 23.8926 15.7526 23.8926 15.8984C23.8952 16.0443 23.8965 16.1979 23.8965 16.3594C23.8991 16.5182 23.9004 16.6706 23.9004 16.8164C23.903 16.9622 23.9043 17.0924 23.9043 17.207C23.9043 17.3216 23.9056 17.4049 23.9082 17.457C23.9108 17.5299 23.9199 17.5938 23.9355 17.6484C23.9538 17.7031 23.9629 17.7656 23.9629 17.8359C23.9629 17.8932 23.9408 17.9362 23.8965 17.9648C23.8548 17.9935 23.8079 18.0078 23.7559 18.0078C23.7272 18.0078 23.7012 18.0039 23.6777 17.9961C23.6569 17.9883 23.64 17.9753 23.627 17.957C23.6139 17.9388 23.6061 17.9154 23.6035 17.8867C23.6035 17.8555 23.61 17.8177 23.623 17.7734C23.5762 17.7188 23.5163 17.6276 23.4434 17.5C23.3704 17.3698 23.2897 17.224 23.2012 17.0625C23.1152 16.8984 23.0241 16.7266 22.9277 16.5469C22.834 16.3672 22.7428 16.1979 22.6543 16.0391C22.5684 15.8776 22.4876 15.737 22.4121 15.6172C22.3366 15.4974 22.2754 15.4154 22.2285 15.3711C22.2155 15.5404 22.2116 15.737 22.2168 15.9609C22.222 16.1823 22.2311 16.4102 22.2441 16.6445C22.2572 16.8763 22.2702 17.1029 22.2832 17.3242C22.2988 17.5456 22.3066 17.7409 22.3066 17.9102C22.3066 17.9648 22.291 17.9987 22.2598 18.0117C22.2285 18.0273 22.196 18.0312 22.1621 18.0234C22.1283 18.0156 22.0996 18.0026 22.0762 17.9844C22.0527 17.9635 22.0488 17.9479 22.0645 17.9375L21.8965 14.7148ZM24.1777 14.7148C24.2064 14.6732 24.2402 14.6615 24.2793 14.6797C24.321 14.6953 24.3587 14.7214 24.3926 14.7578C24.429 14.7917 24.4577 14.8268 24.4785 14.8633C24.4993 14.8971 24.5046 14.9128 24.4941 14.9102L25.9277 17.3594C25.9355 17.3203 25.9421 17.2578 25.9473 17.1719C25.9551 17.0833 25.9603 16.9805 25.9629 16.8633C25.9655 16.7435 25.9655 16.6133 25.9629 16.4727C25.9629 16.332 25.9603 16.1914 25.9551 16.0508C25.9525 15.9102 25.9473 15.7721 25.9395 15.6367C25.9316 15.5013 25.9225 15.3802 25.9121 15.2734C25.9017 15.1641 25.89 15.0742 25.877 15.0039C25.8639 14.931 25.8483 14.8867 25.8301 14.8711C25.8301 14.8294 25.8379 14.7904 25.8535 14.7539C25.8691 14.7148 25.9004 14.6953 25.9473 14.6953C25.9915 14.6953 26.028 14.7214 26.0566 14.7734C26.0853 14.8255 26.1074 14.8841 26.123 14.9492C26.1387 15.0143 26.1491 15.0781 26.1543 15.1406C26.1621 15.2031 26.166 15.2435 26.166 15.2617C26.1686 15.3138 26.1699 15.3971 26.1699 15.5117C26.1725 15.6237 26.1738 15.7526 26.1738 15.8984C26.1764 16.0443 26.1777 16.1979 26.1777 16.3594C26.1803 16.5182 26.1816 16.6706 26.1816 16.8164C26.1842 16.9622 26.1855 17.0924 26.1855 17.207C26.1855 17.3216 26.1868 17.4049 26.1895 17.457C26.1921 17.5299 26.2012 17.5938 26.2168 17.6484C26.235 17.7031 26.2441 17.7656 26.2441 17.8359C26.2441 17.8932 26.222 17.9362 26.1777 17.9648C26.1361 17.9935 26.0892 18.0078 26.0371 18.0078C26.0085 18.0078 25.9824 18.0039 25.959 17.9961C25.9382 17.9883 25.9212 17.9753 25.9082 17.957C25.8952 17.9388 25.8874 17.9154 25.8848 17.8867C25.8848 17.8555 25.8913 17.8177 25.9043 17.7734C25.8574 17.7188 25.7975 17.6276 25.7246 17.5C25.6517 17.3698 25.571 17.224 25.4824 17.0625C25.3965 16.8984 25.3053 16.7266 25.209 16.5469C25.1152 16.3672 25.0241 16.1979 24.9355 16.0391C24.8496 15.8776 24.7689 15.737 24.6934 15.6172C24.6178 15.4974 24.5566 15.4154 24.5098 15.3711C24.4967 15.5404 24.4928 15.737 24.498 15.9609C24.5033 16.1823 24.5124 16.4102 24.5254 16.6445C24.5384 16.8763 24.5514 17.1029 24.5645 17.3242C24.5801 17.5456 24.5879 17.7409 24.5879 17.9102C24.5879 17.9648 24.5723 17.9987 24.541 18.0117C24.5098 18.0273 24.4772 18.0312 24.4434 18.0234C24.4095 18.0156 24.3809 18.0026 24.3574 17.9844C24.334 17.9635 24.3301 17.9479 24.3457 17.9375L24.1777 14.7148ZM26.541 17.9141C26.541 17.6641 26.5449 17.4089 26.5527 17.1484C26.5632 16.888 26.5671 16.6263 26.5645 16.3633C26.5645 16.0977 26.554 15.8346 26.5332 15.5742C26.5124 15.3138 26.4733 15.0586 26.416 14.8086C26.416 14.7956 26.4212 14.7799 26.4316 14.7617C26.4421 14.7409 26.4551 14.7227 26.4707 14.707C26.4863 14.6914 26.5033 14.6797 26.5215 14.6719C26.5423 14.6615 26.5632 14.6602 26.584 14.668C26.6178 14.681 26.6452 14.707 26.666 14.7461C26.6895 14.7826 26.7064 14.8229 26.7168 14.8672C26.7298 14.9115 26.7376 14.9544 26.7402 14.9961C26.7454 15.0352 26.748 15.0638 26.748 15.082L28.252 14.707C28.2754 14.7122 28.2936 14.7266 28.3066 14.75C28.3223 14.7708 28.3288 14.7956 28.3262 14.8242C28.3262 14.8503 28.3171 14.8763 28.2988 14.9023C28.2832 14.9284 28.2585 14.9466 28.2246 14.957L26.7441 15.3594C26.7441 15.5286 26.748 15.6966 26.7559 15.8633C26.7663 16.0299 26.778 16.1992 26.791 16.3711L27.877 15.9922C27.877 15.9922 27.8848 15.9844 27.9004 15.9688C27.916 15.9531 27.9342 15.9401 27.9551 15.9297C27.9785 15.9193 28.002 15.9154 28.0254 15.918C28.0514 15.9206 28.0762 15.9401 28.0996 15.9766C28.0996 16.0286 28.0684 16.0768 28.0059 16.1211C27.9434 16.1628 27.8652 16.2018 27.7715 16.2383C27.6803 16.2747 27.5801 16.3099 27.4707 16.3438C27.3639 16.375 27.2637 16.4076 27.1699 16.4414C27.0788 16.4753 27.002 16.5104 26.9395 16.5469C26.877 16.5807 26.8457 16.6172 26.8457 16.6562L26.8184 17.6836C26.8574 17.707 26.9134 17.7148 26.9863 17.707C27.0618 17.6966 27.1452 17.6784 27.2363 17.6523C27.3275 17.6263 27.4238 17.5951 27.5254 17.5586C27.627 17.5195 27.7246 17.4831 27.8184 17.4492C27.9121 17.4154 27.998 17.3854 28.0762 17.3594C28.1569 17.3333 28.222 17.319 28.2715 17.3164C28.2949 17.319 28.3158 17.3281 28.334 17.3438C28.3522 17.3568 28.3652 17.3724 28.373 17.3906C28.3809 17.4089 28.3809 17.4284 28.373 17.4492C28.3678 17.4674 28.3509 17.4831 28.3223 17.4961C28.2207 17.5404 28.0983 17.5898 27.9551 17.6445C27.8118 17.6992 27.6634 17.7526 27.5098 17.8047C27.3587 17.8542 27.2116 17.8984 27.0684 17.9375C26.9251 17.974 26.804 17.9961 26.7051 18.0039C26.6686 17.9987 26.6387 17.9909 26.6152 17.9805C26.5944 17.9674 26.5697 17.9453 26.541 17.9141ZM28.5879 14.7305C28.5957 14.7122 28.6113 14.6979 28.6348 14.6875C28.6608 14.6771 28.6868 14.6719 28.7129 14.6719C28.7415 14.6719 28.7663 14.6797 28.7871 14.6953C28.8079 14.7083 28.821 14.7305 28.8262 14.7617L28.8496 14.9766C28.8991 14.9661 28.9577 14.9453 29.0254 14.9141C29.0931 14.8802 29.1712 14.8477 29.2598 14.8164C29.3509 14.7852 29.4525 14.7591 29.5645 14.7383C29.6764 14.7174 29.8014 14.7148 29.9395 14.7305C30.153 14.7721 30.3079 14.8216 30.4043 14.8789C30.5007 14.9362 30.5514 15 30.5566 15.0703C30.5645 15.138 30.5358 15.2122 30.4707 15.293C30.4082 15.3711 30.3236 15.4505 30.2168 15.5312C30.11 15.612 29.9902 15.694 29.8574 15.7773C29.7246 15.8607 29.5944 15.9414 29.4668 16.0195C29.3418 16.0951 29.2246 16.168 29.1152 16.2383C29.0085 16.306 28.9277 16.3685 28.873 16.4258L30.7051 17.5273C30.7051 17.569 30.6882 17.6094 30.6543 17.6484C30.6204 17.6849 30.5814 17.7005 30.5371 17.6953L28.8145 16.7031V18C28.7832 18.026 28.7559 18.043 28.7324 18.0508C28.7116 18.0586 28.6947 18.0612 28.6816 18.0586C28.6686 18.056 28.6569 18.0482 28.6465 18.0352C28.6361 18.0247 28.627 18.013 28.6191 18L28.5879 14.7305ZM28.8496 15.2695C28.8444 15.3216 28.8405 15.3841 28.8379 15.457C28.8353 15.5299 28.834 15.6081 28.834 15.6914C28.834 15.7721 28.834 15.8529 28.834 15.9336C28.834 16.0117 28.834 16.082 28.834 16.1445C28.847 16.1315 28.8874 16.1081 28.9551 16.0742C29.0254 16.0378 29.11 15.9935 29.209 15.9414C29.3079 15.8893 29.4134 15.832 29.5254 15.7695C29.64 15.7044 29.748 15.638 29.8496 15.5703C29.9512 15.5026 30.0397 15.4362 30.1152 15.3711C30.1934 15.3034 30.2428 15.2409 30.2637 15.1836C30.2871 15.1263 30.2754 15.0755 30.2285 15.0312C30.1842 14.9844 30.0918 14.9479 29.9512 14.9219C29.873 14.9167 29.7806 14.9193 29.6738 14.9297C29.5697 14.9401 29.4642 14.9596 29.3574 14.9883C29.2533 15.0143 29.1556 15.0508 29.0645 15.0977C28.9733 15.1445 28.9017 15.2018 28.8496 15.2695Z" fill="black"/>
<path d="M46.9512 14.7266C46.9616 14.7109 46.9772 14.7005 46.998 14.6953C47.0215 14.6875 47.0449 14.6849 47.0684 14.6875C47.0918 14.6901 47.1139 14.6966 47.1348 14.707C47.1582 14.7174 47.1738 14.7292 47.1816 14.7422L47.2402 17.9453C47.2402 17.9766 47.2324 17.9987 47.2168 18.0117C47.2012 18.0247 47.1816 18.0312 47.1582 18.0312C47.1374 18.0339 47.1152 18.0312 47.0918 18.0234C47.0684 18.0156 47.0488 18.0039 47.0332 17.9883L46.9512 14.7266ZM47.498 14.7148C47.5267 14.6732 47.5605 14.6615 47.5996 14.6797C47.6413 14.6953 47.679 14.7214 47.7129 14.7578C47.7493 14.7917 47.778 14.8268 47.7988 14.8633C47.8197 14.8971 47.8249 14.9128 47.8145 14.9102L49.248 17.3594C49.2559 17.3203 49.2624 17.2578 49.2676 17.1719C49.2754 17.0833 49.2806 16.9805 49.2832 16.8633C49.2858 16.7435 49.2858 16.6133 49.2832 16.4727C49.2832 16.332 49.2806 16.1914 49.2754 16.0508C49.2728 15.9102 49.2676 15.7721 49.2598 15.6367C49.252 15.5013 49.2428 15.3802 49.2324 15.2734C49.222 15.1641 49.2103 15.0742 49.1973 15.0039C49.1842 14.931 49.1686 14.8867 49.1504 14.8711C49.1504 14.8294 49.1582 14.7904 49.1738 14.7539C49.1895 14.7148 49.2207 14.6953 49.2676 14.6953C49.3118 14.6953 49.3483 14.7214 49.377 14.7734C49.4056 14.8255 49.4277 14.8841 49.4434 14.9492C49.459 15.0143 49.4694 15.0781 49.4746 15.1406C49.4824 15.2031 49.4863 15.2435 49.4863 15.2617C49.4889 15.3138 49.4902 15.3971 49.4902 15.5117C49.4928 15.6237 49.4941 15.7526 49.4941 15.8984C49.4967 16.0443 49.498 16.1979 49.498 16.3594C49.5007 16.5182 49.502 16.6706 49.502 16.8164C49.5046 16.9622 49.5059 17.0924 49.5059 17.207C49.5059 17.3216 49.5072 17.4049 49.5098 17.457C49.5124 17.5299 49.5215 17.5938 49.5371 17.6484C49.5553 17.7031 49.5645 17.7656 49.5645 17.8359C49.5645 17.8932 49.5423 17.9362 49.498 17.9648C49.4564 17.9935 49.4095 18.0078 49.3574 18.0078C49.3288 18.0078 49.3027 18.0039 49.2793 17.9961C49.2585 17.9883 49.2415 17.9753 49.2285 17.957C49.2155 17.9388 49.2077 17.9154 49.2051 17.8867C49.2051 17.8555 49.2116 17.8177 49.2246 17.7734C49.1777 17.7188 49.1178 17.6276 49.0449 17.5C48.972 17.3698 48.8913 17.224 48.8027 17.0625C48.7168 16.8984 48.6257 16.7266 48.5293 16.5469C48.4355 16.3672 48.3444 16.1979 48.2559 16.0391C48.1699 15.8776 48.0892 15.737 48.0137 15.6172C47.9382 15.4974 47.877 15.4154 47.8301 15.3711C47.8171 15.5404 47.8132 15.737 47.8184 15.9609C47.8236 16.1823 47.8327 16.4102 47.8457 16.6445C47.8587 16.8763 47.8717 17.1029 47.8848 17.3242C47.9004 17.5456 47.9082 17.7409 47.9082 17.9102C47.9082 17.9648 47.8926 17.9987 47.8613 18.0117C47.8301 18.0273 47.7975 18.0312 47.7637 18.0234C47.7298 18.0156 47.7012 18.0026 47.6777 17.9844C47.6543 17.9635 47.6504 17.9479 47.666 17.9375L47.498 14.7148ZM51.0176 14.9961C50.916 14.9831 50.8145 14.9818 50.7129 14.9922C50.6113 15 50.5098 15.0104 50.4082 15.0234C50.3092 15.0365 50.209 15.0495 50.1074 15.0625C50.0059 15.0729 49.9043 15.0742 49.8027 15.0664C49.7741 15.0638 49.7441 15.0573 49.7129 15.0469C49.6842 15.0365 49.6725 15.0091 49.6777 14.9648C49.6803 14.9362 49.6947 14.9076 49.7207 14.8789C49.7467 14.8503 49.7741 14.8372 49.8027 14.8398L50.9785 14.7695C50.9811 14.7565 50.9863 14.7383 50.9941 14.7148C51.002 14.6888 51.0124 14.6641 51.0254 14.6406C51.0384 14.6172 51.054 14.5977 51.0723 14.582C51.0905 14.5638 51.1113 14.556 51.1348 14.5586C51.1686 14.5612 51.1947 14.5729 51.2129 14.5938C51.2337 14.612 51.2507 14.6328 51.2637 14.6562C51.2767 14.6771 51.2884 14.6966 51.2988 14.7148C51.3092 14.7331 51.3223 14.7435 51.3379 14.7461C51.7572 14.7461 52.1882 14.7383 52.6309 14.7227C52.6387 14.7227 52.6595 14.724 52.6934 14.7266C52.7272 14.7266 52.7507 14.7279 52.7637 14.7305C52.7793 14.7747 52.7624 14.8099 52.7129 14.8359C52.666 14.8594 52.597 14.8776 52.5059 14.8906C52.4173 14.9036 52.3158 14.9128 52.2012 14.918C52.0866 14.9232 51.972 14.9271 51.8574 14.9297C51.7454 14.9323 51.6387 14.9362 51.5371 14.9414C51.4382 14.9466 51.36 14.9544 51.3027 14.9648C51.2819 15.1003 51.2702 15.2461 51.2676 15.4023C51.265 15.5586 51.265 15.7201 51.2676 15.8867C51.2728 16.0534 51.2806 16.2227 51.291 16.3945C51.3014 16.5664 51.3105 16.7357 51.3184 16.9023C51.3288 17.069 51.3353 17.2305 51.3379 17.3867C51.3405 17.543 51.3366 17.6888 51.3262 17.8242C51.3418 17.9076 51.334 17.9557 51.3027 17.9688C51.2741 17.9792 51.2181 17.9779 51.1348 17.9648C51.1139 17.8581 51.0983 17.7292 51.0879 17.5781C51.0775 17.4245 51.0697 17.2591 51.0645 17.082C51.0592 16.9023 51.0566 16.7174 51.0566 16.5273C51.0566 16.3346 51.0553 16.1458 51.0527 15.9609C51.0501 15.776 51.0462 15.6016 51.041 15.4375C51.0384 15.2708 51.0306 15.1237 51.0176 14.9961ZM53.0098 17.9141C53.0098 17.6641 53.0137 17.4089 53.0215 17.1484C53.0319 16.888 53.0358 16.6263 53.0332 16.3633C53.0332 16.0977 53.0228 15.8346 53.002 15.5742C52.9811 15.3138 52.9421 15.0586 52.8848 14.8086C52.8848 14.7956 52.89 14.7799 52.9004 14.7617C52.9108 14.7409 52.9238 14.7227 52.9395 14.707C52.9551 14.6914 52.972 14.6797 52.9902 14.6719C53.0111 14.6615 53.0319 14.6602 53.0527 14.668C53.0866 14.681 53.1139 14.707 53.1348 14.7461C53.1582 14.7826 53.1751 14.8229 53.1855 14.8672C53.1986 14.9115 53.2064 14.9544 53.209 14.9961C53.2142 15.0352 53.2168 15.0638 53.2168 15.082L54.7207 14.707C54.7441 14.7122 54.7624 14.7266 54.7754 14.75C54.791 14.7708 54.7975 14.7956 54.7949 14.8242C54.7949 14.8503 54.7858 14.8763 54.7676 14.9023C54.752 14.9284 54.7272 14.9466 54.6934 14.957L53.2129 15.3594C53.2129 15.5286 53.2168 15.6966 53.2246 15.8633C53.235 16.0299 53.2467 16.1992 53.2598 16.3711L54.3457 15.9922C54.3457 15.9922 54.3535 15.9844 54.3691 15.9688C54.3848 15.9531 54.403 15.9401 54.4238 15.9297C54.4473 15.9193 54.4707 15.9154 54.4941 15.918C54.5202 15.9206 54.5449 15.9401 54.5684 15.9766C54.5684 16.0286 54.5371 16.0768 54.4746 16.1211C54.4121 16.1628 54.334 16.2018 54.2402 16.2383C54.1491 16.2747 54.0488 16.3099 53.9395 16.3438C53.8327 16.375 53.7324 16.4076 53.6387 16.4414C53.5475 16.4753 53.4707 16.5104 53.4082 16.5469C53.3457 16.5807 53.3145 16.6172 53.3145 16.6562L53.2871 17.6836C53.3262 17.707 53.3822 17.7148 53.4551 17.707C53.5306 17.6966 53.6139 17.6784 53.7051 17.6523C53.7962 17.6263 53.8926 17.5951 53.9941 17.5586C54.0957 17.5195 54.1934 17.4831 54.2871 17.4492C54.3809 17.4154 54.4668 17.3854 54.5449 17.3594C54.6257 17.3333 54.6908 17.319 54.7402 17.3164C54.7637 17.319 54.7845 17.3281 54.8027 17.3438C54.821 17.3568 54.834 17.3724 54.8418 17.3906C54.8496 17.4089 54.8496 17.4284 54.8418 17.4492C54.8366 17.4674 54.8197 17.4831 54.791 17.4961C54.6895 17.5404 54.5671 17.5898 54.4238 17.6445C54.2806 17.6992 54.1322 17.7526 53.9785 17.8047C53.8275 17.8542 53.6803 17.8984 53.5371 17.9375C53.3939 17.974 53.2728 17.9961 53.1738 18.0039C53.1374 17.9987 53.1074 17.9909 53.084 17.9805C53.0632 17.9674 53.0384 17.9453 53.0098 17.9141ZM55.0566 14.7305C55.0645 14.7122 55.0801 14.6979 55.1035 14.6875C55.1296 14.6771 55.1556 14.6719 55.1816 14.6719C55.2103 14.6719 55.235 14.6797 55.2559 14.6953C55.2767 14.7083 55.2897 14.7305 55.2949 14.7617L55.3184 14.9766C55.3678 14.9661 55.4264 14.9453 55.4941 14.9141C55.5618 14.8802 55.64 14.8477 55.7285 14.8164C55.8197 14.7852 55.9212 14.7591 56.0332 14.7383C56.1452 14.7174 56.2702 14.7148 56.4082 14.7305C56.6217 14.7721 56.7767 14.8216 56.873 14.8789C56.9694 14.9362 57.0202 15 57.0254 15.0703C57.0332 15.138 57.0046 15.2122 56.9395 15.293C56.877 15.3711 56.7923 15.4505 56.6855 15.5312C56.5788 15.612 56.459 15.694 56.3262 15.7773C56.1934 15.8607 56.0632 15.9414 55.9355 16.0195C55.8105 16.0951 55.6934 16.168 55.584 16.2383C55.4772 16.306 55.3965 16.3685 55.3418 16.4258L57.1738 17.5273C57.1738 17.569 57.1569 17.6094 57.123 17.6484C57.0892 17.6849 57.0501 17.7005 57.0059 17.6953L55.2832 16.7031V18C55.252 18.026 55.2246 18.043 55.2012 18.0508C55.1803 18.0586 55.1634 18.0612 55.1504 18.0586C55.1374 18.056 55.1257 18.0482 55.1152 18.0352C55.1048 18.0247 55.0957 18.013 55.0879 18L55.0566 14.7305ZM55.3184 15.2695C55.3132 15.3216 55.3092 15.3841 55.3066 15.457C55.304 15.5299 55.3027 15.6081 55.3027 15.6914C55.3027 15.7721 55.3027 15.8529 55.3027 15.9336C55.3027 16.0117 55.3027 16.082 55.3027 16.1445C55.3158 16.1315 55.3561 16.1081 55.4238 16.0742C55.4941 16.0378 55.5788 15.9935 55.6777 15.9414C55.7767 15.8893 55.8822 15.832 55.9941 15.7695C56.1087 15.7044 56.2168 15.638 56.3184 15.5703C56.4199 15.5026 56.5085 15.4362 56.584 15.3711C56.6621 15.3034 56.7116 15.2409 56.7324 15.1836C56.7559 15.1263 56.7441 15.0755 56.6973 15.0312C56.653 14.9844 56.5605 14.9479 56.4199 14.9219C56.3418 14.9167 56.2493 14.9193 56.1426 14.9297C56.0384 14.9401 55.9329 14.9596 55.8262 14.9883C55.722 15.0143 55.6243 15.0508 55.5332 15.0977C55.4421 15.1445 55.3704 15.2018 55.3184 15.2695ZM59.4863 15.1133C59.4759 15.1081 59.459 15.1406 59.4355 15.2109C59.4147 15.2812 59.3874 15.3724 59.3535 15.4844C59.3197 15.5964 59.2819 15.7227 59.2402 15.8633C59.2012 16.0039 59.1582 16.1432 59.1113 16.2812C59.0671 16.4193 59.0215 16.5482 58.9746 16.668C58.9277 16.7878 58.8809 16.8828 58.834 16.9531C58.7897 17.0234 58.7467 17.0625 58.7051 17.0703C58.666 17.0755 58.6296 17.0339 58.5957 16.9453C58.554 16.8828 58.5072 16.7969 58.4551 16.6875C58.403 16.5781 58.347 16.4596 58.2871 16.332C58.2298 16.2044 58.1686 16.0729 58.1035 15.9375C58.041 15.7995 57.9772 15.6719 57.9121 15.5547C57.847 15.4375 57.7832 15.3359 57.7207 15.25C57.6582 15.1615 57.5983 15.1003 57.541 15.0664C57.541 15.2695 57.5527 15.4922 57.5762 15.7344C57.5996 15.9766 57.6243 16.2227 57.6504 16.4727C57.679 16.7201 57.7051 16.9648 57.7285 17.207C57.752 17.4492 57.7637 17.6732 57.7637 17.8789C57.7767 17.9049 57.7767 17.931 57.7637 17.957C57.7533 17.9831 57.7363 18.0026 57.7129 18.0156C57.6895 18.0286 57.6621 18.0312 57.6309 18.0234C57.5996 18.0156 57.571 17.9922 57.5449 17.9531C57.5085 17.6927 57.4824 17.4271 57.4668 17.1562C57.4512 16.8854 57.4355 16.6133 57.4199 16.3398C57.4043 16.0664 57.3848 15.7943 57.3613 15.5234C57.3405 15.2526 57.3079 14.9857 57.2637 14.7227C57.2611 14.6706 57.2702 14.638 57.291 14.625C57.3118 14.612 57.3379 14.6055 57.3691 14.6055C57.4863 14.6393 57.5918 14.7018 57.6855 14.793C57.7793 14.8815 57.8639 14.987 57.9395 15.1094C58.0176 15.2292 58.0879 15.3607 58.1504 15.5039C58.2155 15.6471 58.2793 15.7904 58.3418 15.9336C58.4043 16.0742 58.4668 16.2096 58.5293 16.3398C58.5918 16.4674 58.6608 16.5781 58.7363 16.6719C58.7467 16.6719 58.7559 16.668 58.7637 16.6602C58.7741 16.6497 58.7871 16.625 58.8027 16.5859C58.8184 16.5443 58.8405 16.4818 58.8691 16.3984C58.8978 16.3151 58.9355 16.1992 58.9824 16.0508C59.0319 15.9023 59.0931 15.7161 59.166 15.4922C59.2389 15.2656 59.3275 14.9909 59.4316 14.668C59.4368 14.6523 59.4499 14.6393 59.4707 14.6289C59.4915 14.6159 59.5137 14.6094 59.5371 14.6094C59.5632 14.6094 59.5866 14.6185 59.6074 14.6367C59.6283 14.6523 59.6426 14.681 59.6504 14.7227C59.6764 14.9622 59.6999 15.2161 59.7207 15.4844C59.7441 15.75 59.7689 16.0221 59.7949 16.3008C59.821 16.5794 59.8509 16.862 59.8848 17.1484C59.9186 17.4323 59.9603 17.7122 60.0098 17.9883C60.0046 18.0247 59.9928 18.0495 59.9746 18.0625C59.9564 18.0781 59.9342 18.0846 59.9082 18.082C59.8822 18.0794 59.8535 18.0703 59.8223 18.0547C59.7936 18.0417 59.7663 18.0247 59.7402 18.0039L59.4863 15.1133ZM60.2715 17.9141C60.2715 17.6641 60.2754 17.4089 60.2832 17.1484C60.2936 16.888 60.2975 16.6263 60.2949 16.3633C60.2949 16.0977 60.2845 15.8346 60.2637 15.5742C60.2428 15.3138 60.2038 15.0586 60.1465 14.8086C60.1465 14.7956 60.1517 14.7799 60.1621 14.7617C60.1725 14.7409 60.1855 14.7227 60.2012 14.707C60.2168 14.6914 60.2337 14.6797 60.252 14.6719C60.2728 14.6615 60.2936 14.6602 60.3145 14.668C60.3483 14.681 60.3757 14.707 60.3965 14.7461C60.4199 14.7826 60.4368 14.8229 60.4473 14.8672C60.4603 14.9115 60.4681 14.9544 60.4707 14.9961C60.4759 15.0352 60.4785 15.0638 60.4785 15.082L61.9824 14.707C62.0059 14.7122 62.0241 14.7266 62.0371 14.75C62.0527 14.7708 62.0592 14.7956 62.0566 14.8242C62.0566 14.8503 62.0475 14.8763 62.0293 14.9023C62.0137 14.9284 61.9889 14.9466 61.9551 14.957L60.4746 15.3594C60.4746 15.5286 60.4785 15.6966 60.4863 15.8633C60.4967 16.0299 60.5085 16.1992 60.5215 16.3711L61.6074 15.9922C61.6074 15.9922 61.6152 15.9844 61.6309 15.9688C61.6465 15.9531 61.6647 15.9401 61.6855 15.9297C61.709 15.9193 61.7324 15.9154 61.7559 15.918C61.7819 15.9206 61.8066 15.9401 61.8301 15.9766C61.8301 16.0286 61.7988 16.0768 61.7363 16.1211C61.6738 16.1628 61.5957 16.2018 61.502 16.2383C61.4108 16.2747 61.3105 16.3099 61.2012 16.3438C61.0944 16.375 60.9941 16.4076 60.9004 16.4414C60.8092 16.4753 60.7324 16.5104 60.6699 16.5469C60.6074 16.5807 60.5762 16.6172 60.5762 16.6562L60.5488 17.6836C60.5879 17.707 60.6439 17.7148 60.7168 17.707C60.7923 17.6966 60.8757 17.6784 60.9668 17.6523C61.0579 17.6263 61.1543 17.5951 61.2559 17.5586C61.3574 17.5195 61.4551 17.4831 61.5488 17.4492C61.6426 17.4154 61.7285 17.3854 61.8066 17.3594C61.8874 17.3333 61.9525 17.319 62.002 17.3164C62.0254 17.319 62.0462 17.3281 62.0645 17.3438C62.0827 17.3568 62.0957 17.3724 62.1035 17.3906C62.1113 17.4089 62.1113 17.4284 62.1035 17.4492C62.0983 17.4674 62.0814 17.4831 62.0527 17.4961C61.9512 17.5404 61.8288 17.5898 61.6855 17.6445C61.5423 17.6992 61.3939 17.7526 61.2402 17.8047C61.0892 17.8542 60.9421 17.8984 60.7988 17.9375C60.6556 17.974 60.5345 17.9961 60.4355 18.0039C60.3991 17.9987 60.3691 17.9909 60.3457 17.9805C60.3249 17.9674 60.3001 17.9453 60.2715 17.9141ZM62.9082 17.8555C62.9056 17.8294 62.9382 17.7812 63.0059 17.7109C63.0736 17.6406 63.1595 17.5547 63.2637 17.4531C63.3678 17.3516 63.4811 17.2357 63.6035 17.1055C63.7285 16.9727 63.8457 16.8307 63.9551 16.6797C64.0645 16.526 64.1569 16.3659 64.2324 16.1992C64.3105 16.0299 64.3548 15.8581 64.3652 15.6836C64.3652 15.6029 64.3431 15.5312 64.2988 15.4688C64.2546 15.4036 64.1973 15.3464 64.127 15.2969C64.0592 15.2448 63.9811 15.2005 63.8926 15.1641C63.804 15.1276 63.7155 15.0977 63.627 15.0742C63.541 15.0482 63.4577 15.0299 63.377 15.0195C63.2962 15.0065 63.2285 15 63.1738 15C63.1608 15 63.1413 15.0013 63.1152 15.0039C63.0918 15.0039 63.0645 15.0078 63.0332 15.0156C63.002 15.0208 62.9694 15.0286 62.9355 15.0391C62.9043 15.0469 62.8757 15.0586 62.8496 15.0742L63.0293 17.4492C63.0423 17.4779 63.041 17.5091 63.0254 17.543C63.0124 17.5768 62.9915 17.6055 62.9629 17.6289C62.9368 17.6523 62.9082 17.6654 62.877 17.668C62.8457 17.668 62.821 17.6497 62.8027 17.6133L62.6113 15.1797C62.6035 15.1849 62.5879 15.1927 62.5645 15.2031C62.5436 15.2135 62.5215 15.2253 62.498 15.2383C62.4746 15.2487 62.4525 15.2604 62.4316 15.2734C62.4108 15.2839 62.3965 15.2904 62.3887 15.293C62.3861 15.293 62.3809 15.2943 62.373 15.2969C62.3678 15.2969 62.3639 15.2969 62.3613 15.2969C62.3457 15.2969 62.3275 15.293 62.3066 15.2852C62.2884 15.2773 62.2793 15.2604 62.2793 15.2344C62.2793 15.1901 62.2884 15.1549 62.3066 15.1289C62.3275 15.1003 62.3522 15.0742 62.3809 15.0508C62.4121 15.0273 62.4447 15.0052 62.4785 14.9844C62.515 14.9609 62.5475 14.931 62.5762 14.8945C62.6074 14.8581 62.6322 14.8125 62.6504 14.7578C62.6712 14.7031 62.6816 14.6328 62.6816 14.5469C62.7389 14.5469 62.7741 14.5573 62.7871 14.5781C62.8027 14.599 62.8118 14.6237 62.8145 14.6523C62.8171 14.6784 62.821 14.7057 62.8262 14.7344C62.8314 14.7604 62.8522 14.7799 62.8887 14.793C62.9694 14.7852 63.0684 14.7826 63.1855 14.7852C63.3027 14.7878 63.4251 14.8008 63.5527 14.8242C63.6803 14.8477 63.8066 14.8815 63.9316 14.9258C64.0566 14.9674 64.1686 15.0247 64.2676 15.0977C64.3665 15.1706 64.4447 15.2591 64.502 15.3633C64.5592 15.4648 64.584 15.5846 64.5762 15.7227C64.5553 15.9362 64.5007 16.1432 64.4121 16.3438C64.3236 16.5417 64.2103 16.7344 64.0723 16.9219C63.9368 17.1094 63.7793 17.293 63.5996 17.4727C63.4199 17.6497 63.2285 17.8255 63.0254 18C63.0228 18 63.0176 18 63.0098 18C63.0046 18.0026 63.0007 18.0039 62.998 18.0039C62.972 18.0039 62.9499 17.9857 62.9316 17.9492C62.916 17.9128 62.9082 17.8815 62.9082 17.8555ZM64.7949 14.7266C64.8053 14.7109 64.821 14.7005 64.8418 14.6953C64.8652 14.6875 64.8887 14.6849 64.9121 14.6875C64.9355 14.6901 64.9577 14.6966 64.9785 14.707C65.002 14.7174 65.0176 14.7292 65.0254 14.7422L65.084 17.9453C65.084 17.9766 65.0762 17.9987 65.0605 18.0117C65.0449 18.0247 65.0254 18.0312 65.002 18.0312C64.9811 18.0339 64.959 18.0312 64.9355 18.0234C64.9121 18.0156 64.8926 18.0039 64.877 17.9883L64.7949 14.7266ZM65.2324 18C65.2507 17.9401 65.2793 17.8411 65.3184 17.7031C65.36 17.5651 65.4134 17.3685 65.4785 17.1133C65.5436 16.8555 65.623 16.5286 65.7168 16.1328C65.8132 15.737 65.9251 15.25 66.0527 14.6719C66.0684 14.6458 66.0905 14.6289 66.1191 14.6211C66.1478 14.6107 66.1764 14.6081 66.2051 14.6133C66.2337 14.6159 66.2572 14.625 66.2754 14.6406C66.2962 14.6536 66.3053 14.6693 66.3027 14.6875L67.0723 16.5586L67.4707 16.4375C67.5046 16.4375 67.5332 16.4466 67.5566 16.4648C67.5801 16.4831 67.5931 16.5052 67.5957 16.5312C67.5983 16.5573 67.5892 16.5859 67.5684 16.6172C67.5475 16.6458 67.5111 16.6693 67.459 16.6875C67.4382 16.6953 67.4108 16.7044 67.377 16.7148C67.3431 16.7227 67.3092 16.7305 67.2754 16.7383C67.2415 16.7461 67.2129 16.7539 67.1895 16.7617C67.166 16.7695 67.1543 16.7773 67.1543 16.7852L67.5879 17.9414C67.5827 17.9544 67.5775 17.9714 67.5723 17.9922C67.5671 18.0104 67.5566 18.0247 67.541 18.0352C67.5254 18.0482 67.502 18.0521 67.4707 18.0469C67.4395 18.0443 67.3952 18.026 67.3379 17.9922L66.8887 16.8438C66.834 16.8594 66.7663 16.875 66.6855 16.8906C66.6048 16.9036 66.5202 16.918 66.4316 16.9336C66.3431 16.9466 66.2533 16.9635 66.1621 16.9844C66.0736 17.0026 65.9915 17.026 65.916 17.0547C65.8405 17.0833 65.7767 17.1185 65.7246 17.1602C65.6725 17.1992 65.6413 17.2474 65.6309 17.3047C65.6257 17.3411 65.6152 17.401 65.5996 17.4844C65.5866 17.5677 65.5736 17.651 65.5605 17.7344C65.5449 17.8333 65.5267 17.9401 65.5059 18.0547C65.459 18.1016 65.416 18.1172 65.377 18.1016C65.3405 18.0859 65.2923 18.0521 65.2324 18ZM66.2129 15.1016L65.7988 16.8398C65.8431 16.8242 65.9043 16.8073 65.9824 16.7891C66.0605 16.7708 66.1452 16.7513 66.2363 16.7305C66.3275 16.7096 66.4186 16.6888 66.5098 16.668C66.6035 16.6471 66.6882 16.625 66.7637 16.6016L66.2129 15.1016ZM68.2402 14.9961C68.1387 14.9831 68.0371 14.9818 67.9355 14.9922C67.834 15 67.7324 15.0104 67.6309 15.0234C67.5319 15.0365 67.4316 15.0495 67.3301 15.0625C67.2285 15.0729 67.127 15.0742 67.0254 15.0664C66.9967 15.0638 66.9668 15.0573 66.9355 15.0469C66.9069 15.0365 66.8952 15.0091 66.9004 14.9648C66.903 14.9362 66.9173 14.9076 66.9434 14.8789C66.9694 14.8503 66.9967 14.8372 67.0254 14.8398L68.2012 14.7695C68.2038 14.7565 68.209 14.7383 68.2168 14.7148C68.2246 14.6888 68.235 14.6641 68.248 14.6406C68.2611 14.6172 68.2767 14.5977 68.2949 14.582C68.3132 14.5638 68.334 14.556 68.3574 14.5586C68.3913 14.5612 68.4173 14.5729 68.4355 14.5938C68.4564 14.612 68.4733 14.6328 68.4863 14.6562C68.4993 14.6771 68.5111 14.6966 68.5215 14.7148C68.5319 14.7331 68.5449 14.7435 68.5605 14.7461C68.9798 14.7461 69.4108 14.7383 69.8535 14.7227C69.8613 14.7227 69.8822 14.724 69.916 14.7266C69.9499 14.7266 69.9733 14.7279 69.9863 14.7305C70.002 14.7747 69.985 14.8099 69.9355 14.8359C69.8887 14.8594 69.8197 14.8776 69.7285 14.8906C69.64 14.9036 69.5384 14.9128 69.4238 14.918C69.3092 14.9232 69.1947 14.9271 69.0801 14.9297C68.9681 14.9323 68.8613 14.9362 68.7598 14.9414C68.6608 14.9466 68.5827 14.9544 68.5254 14.9648C68.5046 15.1003 68.4928 15.2461 68.4902 15.4023C68.4876 15.5586 68.4876 15.7201 68.4902 15.8867C68.4954 16.0534 68.5033 16.2227 68.5137 16.3945C68.5241 16.5664 68.5332 16.7357 68.541 16.9023C68.5514 17.069 68.5579 17.2305 68.5605 17.3867C68.5632 17.543 68.5592 17.6888 68.5488 17.8242C68.5645 17.9076 68.5566 17.9557 68.5254 17.9688C68.4967 17.9792 68.4408 17.9779 68.3574 17.9648C68.3366 17.8581 68.321 17.7292 68.3105 17.5781C68.3001 17.4245 68.2923 17.2591 68.2871 17.082C68.2819 16.9023 68.2793 16.7174 68.2793 16.5273C68.2793 16.3346 68.278 16.1458 68.2754 15.9609C68.2728 15.776 68.2689 15.6016 68.2637 15.4375C68.2611 15.2708 68.2533 15.1237 68.2402 14.9961ZM70.2324 17.9141C70.2324 17.6641 70.2363 17.4089 70.2441 17.1484C70.2546 16.888 70.2585 16.6263 70.2559 16.3633C70.2559 16.0977 70.2454 15.8346 70.2246 15.5742C70.2038 15.3138 70.1647 15.0586 70.1074 14.8086C70.1074 14.7956 70.1126 14.7799 70.123 14.7617C70.1335 14.7409 70.1465 14.7227 70.1621 14.707C70.1777 14.6914 70.1947 14.6797 70.2129 14.6719C70.2337 14.6615 70.2546 14.6602 70.2754 14.668C70.3092 14.681 70.3366 14.707 70.3574 14.7461C70.3809 14.7826 70.3978 14.8229 70.4082 14.8672C70.4212 14.9115 70.429 14.9544 70.4316 14.9961C70.4368 15.0352 70.4395 15.0638 70.4395 15.082L71.9434 14.707C71.9668 14.7122 71.985 14.7266 71.998 14.75C72.0137 14.7708 72.0202 14.7956 72.0176 14.8242C72.0176 14.8503 72.0085 14.8763 71.9902 14.9023C71.9746 14.9284 71.9499 14.9466 71.916 14.957L70.4355 15.3594C70.4355 15.5286 70.4395 15.6966 70.4473 15.8633C70.4577 16.0299 70.4694 16.1992 70.4824 16.3711L71.5684 15.9922C71.5684 15.9922 71.5762 15.9844 71.5918 15.9688C71.6074 15.9531 71.6257 15.9401 71.6465 15.9297C71.6699 15.9193 71.6934 15.9154 71.7168 15.918C71.7428 15.9206 71.7676 15.9401 71.791 15.9766C71.791 16.0286 71.7598 16.0768 71.6973 16.1211C71.6348 16.1628 71.5566 16.2018 71.4629 16.2383C71.3717 16.2747 71.2715 16.3099 71.1621 16.3438C71.0553 16.375 70.9551 16.4076 70.8613 16.4414C70.7702 16.4753 70.6934 16.5104 70.6309 16.5469C70.5684 16.5807 70.5371 16.6172 70.5371 16.6562L70.5098 17.6836C70.5488 17.707 70.6048 17.7148 70.6777 17.707C70.7533 17.6966 70.8366 17.6784 70.9277 17.6523C71.0189 17.6263 71.1152 17.5951 71.2168 17.5586C71.3184 17.5195 71.416 17.4831 71.5098 17.4492C71.6035 17.4154 71.6895 17.3854 71.7676 17.3594C71.8483 17.3333 71.9134 17.319 71.9629 17.3164C71.9863 17.319 72.0072 17.3281 72.0254 17.3438C72.0436 17.3568 72.0566 17.3724 72.0645 17.3906C72.0723 17.4089 72.0723 17.4284 72.0645 17.4492C72.0592 17.4674 72.0423 17.4831 72.0137 17.4961C71.9121 17.5404 71.7897 17.5898 71.6465 17.6445C71.5033 17.6992 71.3548 17.7526 71.2012 17.8047C71.0501 17.8542 70.903 17.8984 70.7598 17.9375C70.6165 17.974 70.4954 17.9961 70.3965 18.0039C70.36 17.9987 70.3301 17.9909 70.3066 17.9805C70.2858 17.9674 70.2611 17.9453 70.2324 17.9141Z" fill="black"/>
<path d="M94.5391 18C94.5573 17.9401 94.5859 17.8411 94.625 17.7031C94.6667 17.5651 94.7201 17.3685 94.7852 17.1133C94.8503 16.8555 94.9297 16.5286 95.0234 16.1328C95.1198 15.737 95.2318 15.25 95.3594 14.6719C95.375 14.6458 95.3971 14.6289 95.4258 14.6211C95.4544 14.6107 95.4831 14.6081 95.5117 14.6133C95.5404 14.6159 95.5638 14.625 95.582 14.6406C95.6029 14.6536 95.612 14.6693 95.6094 14.6875L96.3789 16.5586L96.7773 16.4375C96.8112 16.4375 96.8398 16.4466 96.8633 16.4648C96.8867 16.4831 96.8997 16.5052 96.9023 16.5312C96.9049 16.5573 96.8958 16.5859 96.875 16.6172C96.8542 16.6458 96.8177 16.6693 96.7656 16.6875C96.7448 16.6953 96.7174 16.7044 96.6836 16.7148C96.6497 16.7227 96.6159 16.7305 96.582 16.7383C96.5482 16.7461 96.5195 16.7539 96.4961 16.7617C96.4727 16.7695 96.4609 16.7773 96.4609 16.7852L96.8945 17.9414C96.8893 17.9544 96.8841 17.9714 96.8789 17.9922C96.8737 18.0104 96.8633 18.0247 96.8477 18.0352C96.832 18.0482 96.8086 18.0521 96.7773 18.0469C96.7461 18.0443 96.7018 18.026 96.6445 17.9922L96.1953 16.8438C96.1406 16.8594 96.0729 16.875 95.9922 16.8906C95.9115 16.9036 95.8268 16.918 95.7383 16.9336C95.6497 16.9466 95.5599 16.9635 95.4688 16.9844C95.3802 17.0026 95.2982 17.026 95.2227 17.0547C95.1471 17.0833 95.0833 17.1185 95.0312 17.1602C94.9792 17.1992 94.9479 17.2474 94.9375 17.3047C94.9323 17.3411 94.9219 17.401 94.9062 17.4844C94.8932 17.5677 94.8802 17.651 94.8672 17.7344C94.8516 17.8333 94.8333 17.9401 94.8125 18.0547C94.7656 18.1016 94.7227 18.1172 94.6836 18.1016C94.6471 18.0859 94.599 18.0521 94.5391 18ZM95.5195 15.1016L95.1055 16.8398C95.1497 16.8242 95.2109 16.8073 95.2891 16.7891C95.3672 16.7708 95.4518 16.7513 95.543 16.7305C95.6341 16.7096 95.7253 16.6888 95.8164 16.668C95.9102 16.6471 95.9948 16.625 96.0703 16.6016L95.5195 15.1016ZM97.5898 17.8555C97.5872 17.8294 97.6198 17.7812 97.6875 17.7109C97.7552 17.6406 97.8411 17.5547 97.9453 17.4531C98.0495 17.3516 98.1628 17.2357 98.2852 17.1055C98.4102 16.9727 98.5273 16.8307 98.6367 16.6797C98.7461 16.526 98.8385 16.3659 98.9141 16.1992C98.9922 16.0299 99.0365 15.8581 99.0469 15.6836C99.0469 15.6029 99.0247 15.5312 98.9805 15.4688C98.9362 15.4036 98.8789 15.3464 98.8086 15.2969C98.7409 15.2448 98.6628 15.2005 98.5742 15.1641C98.4857 15.1276 98.3971 15.0977 98.3086 15.0742C98.2227 15.0482 98.1393 15.0299 98.0586 15.0195C97.9779 15.0065 97.9102 15 97.8555 15C97.8424 15 97.8229 15.0013 97.7969 15.0039C97.7734 15.0039 97.7461 15.0078 97.7148 15.0156C97.6836 15.0208 97.651 15.0286 97.6172 15.0391C97.5859 15.0469 97.5573 15.0586 97.5312 15.0742L97.7109 17.4492C97.724 17.4779 97.7227 17.5091 97.707 17.543C97.694 17.5768 97.6732 17.6055 97.6445 17.6289C97.6185 17.6523 97.5898 17.6654 97.5586 17.668C97.5273 17.668 97.5026 17.6497 97.4844 17.6133L97.293 15.1797C97.2852 15.1849 97.2695 15.1927 97.2461 15.2031C97.2253 15.2135 97.2031 15.2253 97.1797 15.2383C97.1562 15.2487 97.1341 15.2604 97.1133 15.2734C97.0924 15.2839 97.0781 15.2904 97.0703 15.293C97.0677 15.293 97.0625 15.2943 97.0547 15.2969C97.0495 15.2969 97.0456 15.2969 97.043 15.2969C97.0273 15.2969 97.0091 15.293 96.9883 15.2852C96.9701 15.2773 96.9609 15.2604 96.9609 15.2344C96.9609 15.1901 96.9701 15.1549 96.9883 15.1289C97.0091 15.1003 97.0339 15.0742 97.0625 15.0508C97.0938 15.0273 97.1263 15.0052 97.1602 14.9844C97.1966 14.9609 97.2292 14.931 97.2578 14.8945C97.2891 14.8581 97.3138 14.8125 97.332 14.7578C97.3529 14.7031 97.3633 14.6328 97.3633 14.5469C97.4206 14.5469 97.4557 14.5573 97.4688 14.5781C97.4844 14.599 97.4935 14.6237 97.4961 14.6523C97.4987 14.6784 97.5026 14.7057 97.5078 14.7344C97.513 14.7604 97.5339 14.7799 97.5703 14.793C97.651 14.7852 97.75 14.7826 97.8672 14.7852C97.9844 14.7878 98.1068 14.8008 98.2344 14.8242C98.362 14.8477 98.4883 14.8815 98.6133 14.9258C98.7383 14.9674 98.8503 15.0247 98.9492 15.0977C99.0482 15.1706 99.1263 15.2591 99.1836 15.3633C99.2409 15.4648 99.2656 15.5846 99.2578 15.7227C99.237 15.9362 99.1823 16.1432 99.0938 16.3438C99.0052 16.5417 98.8919 16.7344 98.7539 16.9219C98.6185 17.1094 98.4609 17.293 98.2812 17.4727C98.1016 17.6497 97.9102 17.8255 97.707 18C97.7044 18 97.6992 18 97.6914 18C97.6862 18.0026 97.6823 18.0039 97.6797 18.0039C97.6536 18.0039 97.6315 17.9857 97.6133 17.9492C97.5977 17.9128 97.5898 17.8815 97.5898 17.8555ZM99.2578 14.7852C99.25 14.7513 99.2539 14.7253 99.2695 14.707C99.2878 14.6862 99.3099 14.6758 99.3359 14.6758C99.362 14.6732 99.3893 14.681 99.418 14.6992C99.4466 14.7174 99.4701 14.7461 99.4883 14.7852L100.453 17.6523L101.289 14.7109C101.297 14.6849 101.312 14.6693 101.336 14.6641C101.362 14.6562 101.388 14.6562 101.414 14.6641C101.44 14.6693 101.464 14.6823 101.484 14.7031C101.505 14.7214 101.514 14.7422 101.512 14.7656L100.605 17.9492C100.53 17.9883 100.47 18.0052 100.426 18C100.382 17.9922 100.344 17.9753 100.312 17.9492L99.2578 14.7852ZM101.121 18C101.139 17.9401 101.168 17.8411 101.207 17.7031C101.249 17.5651 101.302 17.3685 101.367 17.1133C101.432 16.8555 101.512 16.5286 101.605 16.1328C101.702 15.737 101.814 15.25 101.941 14.6719C101.957 14.6458 101.979 14.6289 102.008 14.6211C102.036 14.6107 102.065 14.6081 102.094 14.6133C102.122 14.6159 102.146 14.625 102.164 14.6406C102.185 14.6536 102.194 14.6693 102.191 14.6875L102.961 16.5586L103.359 16.4375C103.393 16.4375 103.422 16.4466 103.445 16.4648C103.469 16.4831 103.482 16.5052 103.484 16.5312C103.487 16.5573 103.478 16.5859 103.457 16.6172C103.436 16.6458 103.4 16.6693 103.348 16.6875C103.327 16.6953 103.299 16.7044 103.266 16.7148C103.232 16.7227 103.198 16.7305 103.164 16.7383C103.13 16.7461 103.102 16.7539 103.078 16.7617C103.055 16.7695 103.043 16.7773 103.043 16.7852L103.477 17.9414C103.471 17.9544 103.466 17.9714 103.461 17.9922C103.456 18.0104 103.445 18.0247 103.43 18.0352C103.414 18.0482 103.391 18.0521 103.359 18.0469C103.328 18.0443 103.284 18.026 103.227 17.9922L102.777 16.8438C102.723 16.8594 102.655 16.875 102.574 16.8906C102.493 16.9036 102.409 16.918 102.32 16.9336C102.232 16.9466 102.142 16.9635 102.051 16.9844C101.962 17.0026 101.88 17.026 101.805 17.0547C101.729 17.0833 101.665 17.1185 101.613 17.1602C101.561 17.1992 101.53 17.2474 101.52 17.3047C101.514 17.3411 101.504 17.401 101.488 17.4844C101.475 17.5677 101.462 17.651 101.449 17.7344C101.434 17.8333 101.415 17.9401 101.395 18.0547C101.348 18.1016 101.305 18.1172 101.266 18.1016C101.229 18.0859 101.181 18.0521 101.121 18ZM102.102 15.1016L101.688 16.8398C101.732 16.8242 101.793 16.8073 101.871 16.7891C101.949 16.7708 102.034 16.7513 102.125 16.7305C102.216 16.7096 102.307 16.6888 102.398 16.668C102.492 16.6471 102.577 16.625 102.652 16.6016L102.102 15.1016ZM103.578 14.7148C103.607 14.6732 103.641 14.6615 103.68 14.6797C103.721 14.6953 103.759 14.7214 103.793 14.7578C103.829 14.7917 103.858 14.8268 103.879 14.8633C103.9 14.8971 103.905 14.9128 103.895 14.9102L105.328 17.3594C105.336 17.3203 105.342 17.2578 105.348 17.1719C105.355 17.0833 105.361 16.9805 105.363 16.8633C105.366 16.7435 105.366 16.6133 105.363 16.4727C105.363 16.332 105.361 16.1914 105.355 16.0508C105.353 15.9102 105.348 15.7721 105.34 15.6367C105.332 15.5013 105.323 15.3802 105.312 15.2734C105.302 15.1641 105.29 15.0742 105.277 15.0039C105.264 14.931 105.249 14.8867 105.23 14.8711C105.23 14.8294 105.238 14.7904 105.254 14.7539C105.27 14.7148 105.301 14.6953 105.348 14.6953C105.392 14.6953 105.428 14.7214 105.457 14.7734C105.486 14.8255 105.508 14.8841 105.523 14.9492C105.539 15.0143 105.549 15.0781 105.555 15.1406C105.562 15.2031 105.566 15.2435 105.566 15.2617C105.569 15.3138 105.57 15.3971 105.57 15.5117C105.573 15.6237 105.574 15.7526 105.574 15.8984C105.577 16.0443 105.578 16.1979 105.578 16.3594C105.581 16.5182 105.582 16.6706 105.582 16.8164C105.585 16.9622 105.586 17.0924 105.586 17.207C105.586 17.3216 105.587 17.4049 105.59 17.457C105.592 17.5299 105.602 17.5938 105.617 17.6484C105.635 17.7031 105.645 17.7656 105.645 17.8359C105.645 17.8932 105.622 17.9362 105.578 17.9648C105.536 17.9935 105.49 18.0078 105.438 18.0078C105.409 18.0078 105.383 18.0039 105.359 17.9961C105.339 17.9883 105.322 17.9753 105.309 17.957C105.296 17.9388 105.288 17.9154 105.285 17.8867C105.285 17.8555 105.292 17.8177 105.305 17.7734C105.258 17.7188 105.198 17.6276 105.125 17.5C105.052 17.3698 104.971 17.224 104.883 17.0625C104.797 16.8984 104.706 16.7266 104.609 16.5469C104.516 16.3672 104.424 16.1979 104.336 16.0391C104.25 15.8776 104.169 15.737 104.094 15.6172C104.018 15.4974 103.957 15.4154 103.91 15.3711C103.897 15.5404 103.893 15.737 103.898 15.9609C103.904 16.1823 103.913 16.4102 103.926 16.6445C103.939 16.8763 103.952 17.1029 103.965 17.3242C103.98 17.5456 103.988 17.7409 103.988 17.9102C103.988 17.9648 103.973 17.9987 103.941 18.0117C103.91 18.0273 103.878 18.0312 103.844 18.0234C103.81 18.0156 103.781 18.0026 103.758 17.9844C103.734 17.9635 103.73 17.9479 103.746 17.9375L103.578 14.7148ZM105.863 17.2227C105.863 17.1289 105.872 17.0013 105.891 16.8398C105.911 16.6784 105.94 16.5039 105.977 16.3164C106.016 16.1289 106.065 15.9401 106.125 15.75C106.185 15.5573 106.255 15.3841 106.336 15.2305C106.417 15.0742 106.508 14.9466 106.609 14.8477C106.714 14.7487 106.828 14.6992 106.953 14.6992C107.023 14.6992 107.083 14.7122 107.133 14.7383C107.185 14.7643 107.228 14.7995 107.262 14.8438C107.296 14.888 107.32 14.9388 107.336 14.9961C107.352 15.0534 107.359 15.1146 107.359 15.1797C107.289 15.2135 107.236 15.2214 107.199 15.2031C107.163 15.1849 107.133 15.1576 107.109 15.1211C107.089 15.082 107.068 15.0417 107.047 15C107.026 14.9583 106.996 14.9323 106.957 14.9219C106.863 14.9219 106.777 14.9674 106.699 15.0586C106.621 15.1471 106.551 15.2604 106.488 15.3984C106.426 15.5365 106.371 15.6901 106.324 15.8594C106.277 16.0286 106.238 16.194 106.207 16.3555C106.176 16.5143 106.152 16.6589 106.137 16.7891C106.121 16.9193 106.113 17.0156 106.113 17.0781C106.113 17.1615 106.116 17.2422 106.121 17.3203C106.129 17.3958 106.146 17.4635 106.172 17.5234C106.201 17.5833 106.242 17.6315 106.297 17.668C106.352 17.7018 106.428 17.7188 106.527 17.7188C106.645 17.7188 106.759 17.6849 106.871 17.6172C106.986 17.5495 107.09 17.4648 107.184 17.3633C107.28 17.2617 107.363 17.1536 107.434 17.0391C107.507 16.9219 107.559 16.8164 107.59 16.7227C107.595 16.7201 107.608 16.7188 107.629 16.7188C107.65 16.7161 107.663 16.7148 107.668 16.7148C107.702 16.7148 107.734 16.7188 107.766 16.7266C107.797 16.7344 107.812 16.7604 107.812 16.8047C107.794 16.8984 107.753 16.9974 107.688 17.1016C107.625 17.2031 107.549 17.3034 107.461 17.4023C107.375 17.4987 107.28 17.5898 107.176 17.6758C107.074 17.7591 106.974 17.8294 106.875 17.8867C106.776 17.944 106.684 17.9831 106.598 18.0039C106.514 18.0273 106.447 18.026 106.395 18C106.301 18 106.22 17.974 106.152 17.9219C106.085 17.8672 106.029 17.8008 105.984 17.7227C105.943 17.6445 105.911 17.5612 105.891 17.4727C105.872 17.3815 105.863 17.2982 105.863 17.2227ZM108.055 17.9141C108.055 17.6641 108.059 17.4089 108.066 17.1484C108.077 16.888 108.081 16.6263 108.078 16.3633C108.078 16.0977 108.068 15.8346 108.047 15.5742C108.026 15.3138 107.987 15.0586 107.93 14.8086C107.93 14.7956 107.935 14.7799 107.945 14.7617C107.956 14.7409 107.969 14.7227 107.984 14.707C108 14.6914 108.017 14.6797 108.035 14.6719C108.056 14.6615 108.077 14.6602 108.098 14.668C108.132 14.681 108.159 14.707 108.18 14.7461C108.203 14.7826 108.22 14.8229 108.23 14.8672C108.243 14.9115 108.251 14.9544 108.254 14.9961C108.259 15.0352 108.262 15.0638 108.262 15.082L109.766 14.707C109.789 14.7122 109.807 14.7266 109.82 14.75C109.836 14.7708 109.842 14.7956 109.84 14.8242C109.84 14.8503 109.831 14.8763 109.812 14.9023C109.797 14.9284 109.772 14.9466 109.738 14.957L108.258 15.3594C108.258 15.5286 108.262 15.6966 108.27 15.8633C108.28 16.0299 108.292 16.1992 108.305 16.3711L109.391 15.9922C109.391 15.9922 109.398 15.9844 109.414 15.9688C109.43 15.9531 109.448 15.9401 109.469 15.9297C109.492 15.9193 109.516 15.9154 109.539 15.918C109.565 15.9206 109.59 15.9401 109.613 15.9766C109.613 16.0286 109.582 16.0768 109.52 16.1211C109.457 16.1628 109.379 16.2018 109.285 16.2383C109.194 16.2747 109.094 16.3099 108.984 16.3438C108.878 16.375 108.777 16.4076 108.684 16.4414C108.592 16.4753 108.516 16.5104 108.453 16.5469C108.391 16.5807 108.359 16.6172 108.359 16.6562L108.332 17.6836C108.371 17.707 108.427 17.7148 108.5 17.707C108.576 17.6966 108.659 17.6784 108.75 17.6523C108.841 17.6263 108.938 17.5951 109.039 17.5586C109.141 17.5195 109.238 17.4831 109.332 17.4492C109.426 17.4154 109.512 17.3854 109.59 17.3594C109.671 17.3333 109.736 17.319 109.785 17.3164C109.809 17.319 109.829 17.3281 109.848 17.3438C109.866 17.3568 109.879 17.3724 109.887 17.3906C109.895 17.4089 109.895 17.4284 109.887 17.4492C109.882 17.4674 109.865 17.4831 109.836 17.4961C109.734 17.5404 109.612 17.5898 109.469 17.6445C109.326 17.6992 109.177 17.7526 109.023 17.8047C108.872 17.8542 108.725 17.8984 108.582 17.9375C108.439 17.974 108.318 17.9961 108.219 18.0039C108.182 17.9987 108.152 17.9909 108.129 17.9805C108.108 17.9674 108.083 17.9453 108.055 17.9141ZM110.691 17.8555C110.689 17.8294 110.721 17.7812 110.789 17.7109C110.857 17.6406 110.943 17.5547 111.047 17.4531C111.151 17.3516 111.264 17.2357 111.387 17.1055C111.512 16.9727 111.629 16.8307 111.738 16.6797C111.848 16.526 111.94 16.3659 112.016 16.1992C112.094 16.0299 112.138 15.8581 112.148 15.6836C112.148 15.6029 112.126 15.5312 112.082 15.4688C112.038 15.4036 111.98 15.3464 111.91 15.2969C111.842 15.2448 111.764 15.2005 111.676 15.1641C111.587 15.1276 111.499 15.0977 111.41 15.0742C111.324 15.0482 111.241 15.0299 111.16 15.0195C111.079 15.0065 111.012 15 110.957 15C110.944 15 110.924 15.0013 110.898 15.0039C110.875 15.0039 110.848 15.0078 110.816 15.0156C110.785 15.0208 110.753 15.0286 110.719 15.0391C110.688 15.0469 110.659 15.0586 110.633 15.0742L110.812 17.4492C110.826 17.4779 110.824 17.5091 110.809 17.543C110.796 17.5768 110.775 17.6055 110.746 17.6289C110.72 17.6523 110.691 17.6654 110.66 17.668C110.629 17.668 110.604 17.6497 110.586 17.6133L110.395 15.1797C110.387 15.1849 110.371 15.1927 110.348 15.2031C110.327 15.2135 110.305 15.2253 110.281 15.2383C110.258 15.2487 110.236 15.2604 110.215 15.2734C110.194 15.2839 110.18 15.2904 110.172 15.293C110.169 15.293 110.164 15.2943 110.156 15.2969C110.151 15.2969 110.147 15.2969 110.145 15.2969C110.129 15.2969 110.111 15.293 110.09 15.2852C110.072 15.2773 110.062 15.2604 110.062 15.2344C110.062 15.1901 110.072 15.1549 110.09 15.1289C110.111 15.1003 110.135 15.0742 110.164 15.0508C110.195 15.0273 110.228 15.0052 110.262 14.9844C110.298 14.9609 110.331 14.931 110.359 14.8945C110.391 14.8581 110.415 14.8125 110.434 14.7578C110.454 14.7031 110.465 14.6328 110.465 14.5469C110.522 14.5469 110.557 14.5573 110.57 14.5781C110.586 14.599 110.595 14.6237 110.598 14.6523C110.6 14.6784 110.604 14.7057 110.609 14.7344C110.615 14.7604 110.635 14.7799 110.672 14.793C110.753 14.7852 110.852 14.7826 110.969 14.7852C111.086 14.7878 111.208 14.8008 111.336 14.8242C111.464 14.8477 111.59 14.8815 111.715 14.9258C111.84 14.9674 111.952 15.0247 112.051 15.0977C112.15 15.1706 112.228 15.2591 112.285 15.3633C112.342 15.4648 112.367 15.5846 112.359 15.7227C112.339 15.9362 112.284 16.1432 112.195 16.3438C112.107 16.5417 111.993 16.7344 111.855 16.9219C111.72 17.1094 111.562 17.293 111.383 17.4727C111.203 17.6497 111.012 17.8255 110.809 18C110.806 18 110.801 18 110.793 18C110.788 18.0026 110.784 18.0039 110.781 18.0039C110.755 18.0039 110.733 17.9857 110.715 17.9492C110.699 17.9128 110.691 17.8815 110.691 17.8555Z" fill="black"/>
<line x1="39.125" x2="39.125" y2="25" stroke="black" stroke-opacity="0.49" stroke-width="0.25"/>
<line x1="79.125" x2="79.125" y2="25" stroke="black" stroke-opacity="0.49" stroke-width="0.25"/>
<defs>
<filter id="filter0_d_937_114" x="16.2447" y="1" width="11.5106" height="10.1406" filterUnits="userSpaceOnUse" color-interpolation-filters="sRGB">
<feFlood flood-opacity="0" result="BackgroundImageFix"/>
<feColorMatrix in="SourceAlpha" type="matrix" values="0 0 0 0 0 0 0 0 0 0 0 0 0 0 0 0 0 0 127 0" result="hardAlpha"/>
<feOffset dy="1"/>
<feGaussianBlur stdDeviation="0.5"/>
<feComposite in2="hardAlpha" operator="out"/>
<feColorMatrix type="matrix" values="0 0 0 0 0 0 0 0 0 0 0 0 0 0 0 0 0 0 0.25 0"/>
<feBlend mode="normal" in2="BackgroundImageFix" result="effect1_dropShadow_937_114"/>
<feBlend mode="normal" in="SourceGraphic" in2="effect1_dropShadow_937_114" result="shape"/>
</filter>
<filter id="filter1_d_937_114" x="48.2447" y="1" width="11.5106" height="10.1406" filterUnits="userSpaceOnUse" color-interpolation-filters="sRGB">
<feFlood flood-opacity="0" result="BackgroundImageFix"/>
<feColorMatrix in="SourceAlpha" type="matrix" values="0 0 0 0 0 0 0 0 0 0 0 0 0 0 0 0 0 0 127 0" result="hardAlpha"/>
<feOffset dy="1"/>
<feGaussianBlur stdDeviation="0.5"/>
<feComposite in2="hardAlpha" operator="out"/>
<feColorMatrix type="matrix" values="0 0 0 0 0 0 0 0 0 0 0 0 0 0 0 0 0 0 0.25 0"/>
<feBlend mode="normal" in2="BackgroundImageFix" result="effect1_dropShadow_937_114"/>
<feBlend mode="normal" in="SourceGraphic" in2="effect1_dropShadow_937_114" result="shape"/>
</filter>
<filter id="filter2_d_937_114" x="86.2447" y="1" width="11.5106" height="10.1406" filterUnits="userSpaceOnUse" color-interpolation-filters="sRGB">
<feFlood flood-opacity="0" result="BackgroundImageFix"/>
<feColorMatrix in="SourceAlpha" type="matrix" values="0 0 0 0 0 0 0 0 0 0 0 0 0 0 0 0 0 0 127 0" result="hardAlpha"/>
<feOffset dy="1"/>
<feGaussianBlur stdDeviation="0.5"/>
<feComposite in2="hardAlpha" operator="out"/>
<feColorMatrix type="matrix" values="0 0 0 0 0 0 0 0 0 0 0 0 0 0 0 0 0 0 0.25 0"/>
<feBlend mode="normal" in2="BackgroundImageFix" result="effect1_dropShadow_937_114"/>
<feBlend mode="normal" in="SourceGraphic" in2="effect1_dropShadow_937_114" result="shape"/>
</filter>
<filter id="filter3_d_937_114" x="58.2447" y="1" width="11.5106" height="10.1406" filterUnits="userSpaceOnUse" color-interpolation-filters="sRGB">
<feFlood flood-opacity="0" result="BackgroundImageFix"/>
<feColorMatrix in="SourceAlpha" type="matrix" values="0 0 0 0 0 0 0 0 0 0 0 0 0 0 0 0 0 0 127 0" result="hardAlpha"/>
<feOffset dy="1"/>
<feGaussianBlur stdDeviation="0.5"/>
<feComposite in2="hardAlpha" operator="out"/>
<feColorMatrix type="matrix" values="0 0 0 0 0 0 0 0 0 0 0 0 0 0 0 0 0 0 0.25 0"/>
<feBlend mode="normal" in2="BackgroundImageFix" result="effect1_dropShadow_937_114"/>
<feBlend mode="normal" in="SourceGraphic" in2="effect1_dropShadow_937_114" result="shape"/>
</filter>
<filter id="filter4_d_937_114" x="108.245" y="1" width="11.5106" height="10.1406" filterUnits="userSpaceOnUse" color-interpolation-filters="sRGB">
<feFlood flood-opacity="0" result="BackgroundImageFix"/>
<feColorMatrix in="SourceAlpha" type="matrix" values="0 0 0 0 0 0 0 0 0 0 0 0 0 0 0 0 0 0 127 0" result="hardAlpha"/>
<feOffset dy="1"/>
<feGaussianBlur stdDeviation="0.5"/>
<feComposite in2="hardAlpha" operator="out"/>
<feColorMatrix type="matrix" values="0 0 0 0 0 0 0 0 0 0 0 0 0 0 0 0 0 0 0.25 0"/>
<feBlend mode="normal" in2="BackgroundImageFix" result="effect1_dropShadow_937_114"/>
<feBlend mode="normal" in="SourceGraphic" in2="effect1_dropShadow_937_114" result="shape"/>
</filter>
<filter id="filter5_d_937_114" x="97.2447" y="1" width="11.5106" height="10.1406" filterUnits="userSpaceOnUse" color-interpolation-filters="sRGB">
<feFlood flood-opacity="0" result="BackgroundImageFix"/>
<feColorMatrix in="SourceAlpha" type="matrix" values="0 0 0 0 0 0 0 0 0 0 0 0 0 0 0 0 0 0 127 0" result="hardAlpha"/>
<feOffset dy="1"/>
<feGaussianBlur stdDeviation="0.5"/>
<feComposite in2="hardAlpha" operator="out"/>
<feColorMatrix type="matrix" values="0 0 0 0 0 0 0 0 0 0 0 0 0 0 0 0 0 0 0.25 0"/>
<feBlend mode="normal" in2="BackgroundImageFix" result="effect1_dropShadow_937_114"/>
<feBlend mode="normal" in="SourceGraphic" in2="effect1_dropShadow_937_114" result="shape"/>
</filter>
</defs>
</svg>
